{"title":"The King of the Streets 2012 BRRip 480p x264 - VYTO [P2PDL]","uid":8689710,"size":320105552,"categoryP":"video","categoryS":"movies","magnet":"?xt=urn:btih:4fcde4603648e6d2cdf2cfc59d45d6e238f7771c&amp;dn=The+King+of+the+Streets+2012+BRRip+480p+x264+-+VYTO+%5BP2PDL%5D&amp;tr=udp%3A%2F%2Ftracker.openbittorrent.com%3A80&amp;tr=udp%3A%2F%2Fopen.demonii.com%3A1337&amp;tr=udp%3A%2F%2Ftracker.coppersurfer.tk%3A6969&amp;tr=udp%3A%2F%2Fexodus.desync.com%3A6969","seeders":1,"leechers":0,"uploader":"ValidusVyto","files":-1,"time":1373859813,"description":"_______ Visit us at our Semi Public Bittorrent Community ________\n  &lt;a href=&quot;\nhttp://p2pdl.com&quot; rel=&quot;nofollow&quot; target=&quot;_NEW&quot;&gt;\nhttp://p2pdl.com&lt;/a&gt;  _____________________________ &lt;a href=&quot; http://p2pdl.com&quot; rel=&quot;nofollow&quot; target=&quot;_NEW&quot;&gt; http://p2pdl.com&lt;/a&gt;\n\n\nThe King of the Streets 2012 BRRip 480p x264 - VYTO\n\n\nOriginal Title: Jie Tou Zhi Wang\nGenre: Action\nPlot: he film is about a boy who seeks revenge for the death of his parents who were\nkilled eight years ago. He fights the local gangsters and finally achieves his goal..\nStars: Yue Song, Li Yufei, Kang En.\nRated: N/a\n\n\nFormat                         : MPEG-4\nFile size                      : 302 MiB\nDuration                       : 1h 27mn\nOverall bit rate               : 481 Kbps\nSource                         : 720p.BluRay.x264.DTS-HDWinG\n\nVideo\nFormat                         : AVC\nBit rate                       : 439 Kbps\nWidth                          : 720 pixels\nHeight                         : 400 pixels\nDisplay aspect ratio           : 16:9\nFrame rate mode                : Constant\nFrame rate                     : 23.976 fps\nStream size                    : 275 MiB (91%)\nWriting library                : x264 core 130 r2273\n\nAudio\nFormat                         : AAC\nBit rate mode                  : Variable\nBit rate                       : 39.9 Kbps\nChannel(s)                     : 2 channels\nChannel positions              : Front: L R\nSampling rate                  : 48.0 KHz\nStream size                    : 25.0 MiB (8%)\nLanguage                       : Chinese(Mandarin)\n\nSubtitle                       : Yes(English) &lt;a href=&quot;\nhttp://ultraimg.com/images/tTjkH.png&quot; rel=&quot;nofollow&quot; target=&quot;_NEW&quot;&gt;\nhttp://ultraimg.com/images/tTjkH.png&lt;/a&gt; &lt;a href=&quot;\nhttp://ultraimg.com/images/LrfVv.png&quot; rel=&quot;nofollow&quot; target=&quot;_NEW&quot;&gt;\nhttp://ultraimg.com/images/LrfVv.png&lt;/a&gt; &lt;a href=&quot;\nhttp://ultraimg.com/images/Qk9Xq.png&quot; rel=&quot;nofollow&quot; target=&quot;_NEW&quot;&gt;\nhttp://ultraimg.com/images/Qk9Xq.png&lt;/a&gt; &lt;a href=&quot;\nhttp://ultraimg.com/images/7K3zr.png&quot; rel=&quot;nofollow&quot; target=&quot;_NEW&quot;&gt;\nhttp://ultraimg.com/images/7K3zr.png&lt;/a&gt; &lt;a href=&quot;\nhttp://ultraimg.com/images/VK9rq.png&quot; rel=&quot;nofollow&quot; target=&quot;_NEW&quot;&gt;\nhttp://ultraimg.com/images/VK9rq.png&lt;/a&gt; &lt;a href=&quot;\nhttp://ultraimg.com/images/4DJbf.png&quot; rel=&quot;nofollow&quot; target=&quot;_NEW&quot;&gt;\nhttp://ultraimg.com/images/4DJbf.png&lt;/a&gt; &lt;a href=&quot;\nhttp://ultraimg.com/images/A8SBf.png&quot; rel=&quot;nofollow&quot; target=&quot;_NEW&quot;&gt;\nhttp://ultraimg.com/images/A8SBf.png&lt;/a&gt; &lt;a href=&quot;\nhttp://ultraimg.com/images/bjiXJ.png&quot; rel=&quot;nofollow&quot; target=&quot;_NEW&quot;&gt;\nhttp://ultraimg.com/images/bjiXJ.png&lt;/a&gt;\n\n\n----------------------------------------------------------------------------------------------------\n\n\nEncoded using revolutionary 10bit encoding, which enables us to provide you more crispier \nand sharper images at small sizes, just make sure you follow our instructions without a fault.\nRecommend to you to use latest version of VLC player. Install K-Lite Codec Pack or shark007 codecs\nin case of any kind of problem in playback (For non-VLC Media Player users). Alternatively, install\nCore AVC codecs, the fastest decoder that there is coupled with Community Center Codec Pack and play\non Windows Media Player Classic. Check sample to be sure.\nEnjoy!\n\nEncoder Notes:Looking For Early Access To Anything You Can Provide DVDScr, R5, DVDR, BluRay, Direct\nAudio, Music Releases and Seedboxes. We require dedicated servers, so as to do more \nand fast releases of movies.\nIf You Got anything to offer please contact us at &quot;&lt;a class=&quot;__cf_email__&quot; href=&quot;/cdn-cgi/l/email-protection&quot; data-cfemail=&quot;aadad8cdeac2dfd9c284c9c5c7&quot;&gt;[email&amp;#160;protected]&lt;/a&gt;&lt;script cf-hash='f9e31' type=&quot;text/javascript&quot;&gt;\n/* &lt;![CDATA[ */!function(){try{var t=&quot;currentScript&quot;in document?document.currentScript:function(){for(var t=document.getElementsByTagName(&quot;script&quot;),e=t.length;e--;)if(t[e].getAttribute(&quot;cf-hash&quot;))return t[e]}();if(t&amp;&amp;t.previousSibling){var e,r,n,i,c=t.previousSibling,a=c.getAttribute(&quot;data-cfemail&quot;);if(a){for(e=&quot;&quot;,r=parseInt(a.substr(0,2),16),n=2;a.length-n;n+=2)i=parseInt(a.substr(n,2),16)^r,e+=String.fromCharCode(i);e=document.createTextNode(e),c.parentNode.replaceChild(e,c)}}}catch(u){}}();/* ]]&gt; */&lt;/script&gt;&quot;.\n\nFace book Fan Page: \nSearch P2PDL on FB!!!","torrent":{"xt":"urn:btih:4fcde4603648e6d2cdf2cfc59d45d6e238f7771c","amp;dn":"The+King+of+the+Streets+2012+BRRip+480p+x264+-+VYTO+%5BP2PDL%5D","amp;tr":["udp%3A%2F%2Ftracker.openbittorrent.com%3A80","udp%3A%2F%2Fopen.demonii.com%3A1337","udp%3A%2F%2Ftracker.coppersurfer.tk%3A6969","udp%3A%2F%2Fexodus.desync.com%3A6969"],"infoHash":"4fcde4603648e6d2cdf2cfc59d45d6e238f7771c","infoHashBuffer":{"type":"Buffer","data":[79,205,228,96,54,72,230,210,205,242,207,197,157,69,214,226,56,247,119,28]},"announce":[],"urlList":[]}}